<svg xmlns="http://www.w3.org/2000/svg" width="50.005" height="50.005" viewBox="0 0 50.005 50.005"><defs><style>.a{fill:#52de97;}</style></defs><path class="a" d="M25,0A25,25,0,1,0,50,25,25.076,25.076,0,0,0,25,0Zm0,45.864A20.861,20.861,0,1,1,45.864,25,20.908,20.908,0,0,1,25,45.864Z"/><path class="a" d="M35.9,21.936l-9.61,9.376-4.375-4.141a1.943,1.943,0,0,0-2.891,0,2,2,0,0,0,0,2.891l5.235,5a2.582,2.582,0,0,0,1.875.859,2.254,2.254,0,0,0,1.875-.859L38.639,24.827a1.943,1.943,0,0,0,0-2.891A1.884,1.884,0,0,0,35.9,21.936Z" transform="translate(-4.026 -4.669)"/></svg>