<svg width="58" height="58" viewBox="0 0 58 58" fill="none" xmlns="http://www.w3.org/2000/svg">
<path d="M29 57.5C44.7401 57.5 57.5 44.7401 57.5 29C57.5 13.2599 44.7401 0.5 29 0.5C13.2599 0.5 0.5 13.2599 0.5 29C0.5 44.7401 13.2599 57.5 29 57.5Z" stroke="#52DE97"/>
<path d="M23.48 25.64H19.33V39H23.48V25.64Z" fill="#2E293C"/>
<path d="M21.41 23.81C20.9329 23.812 20.466 23.6723 20.0684 23.4087C19.6707 23.1451 19.3603 22.7694 19.1763 22.3292C18.9924 21.889 18.9432 21.4041 19.0351 20.936C19.1269 20.4678 19.3557 20.0375 19.6923 19.6994C20.029 19.3614 20.4584 19.1309 20.9261 19.0371C21.3939 18.9433 21.879 18.9904 22.3199 19.1725C22.7609 19.3546 23.1379 19.6635 23.4031 20.06C23.6684 20.4566 23.81 20.9229 23.81 21.4C23.81 22.0374 23.5575 22.6489 23.1077 23.1006C22.6579 23.5523 22.0474 23.8074 21.41 23.81V23.81Z" fill="#2E293C"/>
<path d="M39 39H34.88V32.5C34.88 30.95 34.88 28.96 32.72 28.96C30.56 28.96 30.23 30.65 30.23 32.39V39H26.08V25.64H30.08V27.46C30.4801 26.7804 31.0566 26.2217 31.7485 25.8431C32.4404 25.4646 33.2218 25.2804 34.01 25.31C38.21 25.31 39.01 28.07 39.01 31.67L39 39Z" fill="#2E293C"/>
</svg>
