<svg xmlns="http://www.w3.org/2000/svg" width="33.361" height="50.002" viewBox="0 0 33.361 50.002"><defs><style>.a{fill:#fff;}</style></defs><path class="a" d="M41.327,6.25H37.811V5.625a3.6,3.6,0,0,0-3.516-3.516H29.529A2.118,2.118,0,0,0,27.341,0a2.01,2.01,0,0,0-2.109,2.109H20.466A3.6,3.6,0,0,0,16.95,5.625V6.25H13.435A2.768,2.768,0,0,0,10.7,8.985V47.112A2.836,2.836,0,0,0,13.591,50H41.327a2.63,2.63,0,0,0,2.109-1.016,3.576,3.576,0,0,0,.625-1.875V8.985A2.879,2.879,0,0,0,41.327,6.25Zm-20.235,0h12.5v4.141h-12.5ZM39.842,45.862h-25V10.391H16.95v.625a3.6,3.6,0,0,0,3.516,3.516H34.217a3.6,3.6,0,0,0,3.516-3.516v-.625h2.109Z" transform="translate(-10.7)"/></svg>