<svg xmlns="http://www.w3.org/2000/svg" width="50.003" height="45.94" viewBox="0 0 50.003 45.94"><defs><style>.a{fill:#fff;}</style></defs><g transform="translate(0 -5.3)"><path class="a" d="M47.893,5.3H2.109A2.01,2.01,0,0,0,0,7.409V40.771A2.01,2.01,0,0,0,2.109,42.88h15l6.25,7.5A2.6,2.6,0,0,0,25,51.24a1.849,1.849,0,0,0,1.641-.859l6.25-7.5h15A2.01,2.01,0,0,0,50,40.771V7.409A2.01,2.01,0,0,0,47.893,5.3ZM45.862,38.661H32.5A3.475,3.475,0,0,0,30,39.677a.23.23,0,0,1-.234.234L25,45.771l-4.766-5.86A.23.23,0,0,0,20,39.677a3.763,3.763,0,0,0-2.5-1.016H4.141V9.519H45.784V38.661Z"/><path class="a" d="M10.109,20.119H37.22a2.01,2.01,0,0,0,2.109-2.109A2.01,2.01,0,0,0,37.22,15.9H10.109A2.118,2.118,0,0,0,8,18.088,1.949,1.949,0,0,0,10.109,20.119Z" transform="translate(-1.75 -2.318)"/><path class="a" d="M10.109,30.819H30.97a2.109,2.109,0,1,0,0-4.219H10.109a2.109,2.109,0,1,0,0,4.219Z" transform="translate(-1.75 -4.658)"/><path class="a" d="M10.109,41.519H39.252a2.109,2.109,0,1,0,0-4.219H10.109a2.109,2.109,0,1,0,0,4.219Z" transform="translate(-1.75 -6.999)"/></g></svg>