<svg xmlns="http://www.w3.org/2000/svg" width="49.998" height="33.271" viewBox="0 0 49.998 33.271"><defs><style>.a{fill:#fff;}</style></defs><g transform="translate(0.025 -10.7)"><path class="a" d="M18.387,31.475a10.387,10.387,0,0,0,0-20.775,10.387,10.387,0,0,0,0,20.775Zm0-16.635a6.248,6.248,0,1,1-6.248,6.248A6.168,6.168,0,0,1,18.387,14.839Z" transform="translate(-1.757 0)"/><path class="a" d="M16.63,40A22.56,22.56,0,0,0,.619,46.873a1.942,1.942,0,0,0,0,2.89,2,2,0,0,0,2.89,0A18.942,18.942,0,0,1,16.63,44.139a19.382,19.382,0,0,1,13.121,5.623,2.285,2.285,0,0,0,1.484.625,2.134,2.134,0,0,0,1.484-.625,1.942,1.942,0,0,0,0-2.89A23.155,23.155,0,0,0,16.63,40Z" transform="translate(0 -6.417)"/><path class="a" d="M46.248,33.8A6.248,6.248,0,1,0,40,27.548,6.168,6.168,0,0,0,46.248,33.8Zm0-8.279a2.109,2.109,0,1,1-2.109,2.109A1.968,1.968,0,0,1,46.248,25.517Z" transform="translate(-8.766 -2.321)"/><path class="a" d="M58.136,44.782a17.486,17.486,0,0,0-16.479-4.139,2.055,2.055,0,1,0,1.015,3.983A13.452,13.452,0,0,1,55.4,47.75a2,2,0,0,0,1.484.625,2.134,2.134,0,0,0,1.484-.625A2.451,2.451,0,0,0,58.136,44.782Z" transform="translate(-8.782 -6.434)"/></g></svg>