<svg xmlns="http://www.w3.org/2000/svg" width="49.999" height="46.015" viewBox="0 0 49.999 46.015"><defs><style>.a{fill:#fff;}</style></defs><path class="a" d="M50,25.625A23.461,23.461,0,0,0,42.89,9.765,25.929,25.929,0,0,0,24.531,2.5C11.484,2.969.859,13.125,0,25.625H0v10.39A4.28,4.28,0,0,0,2.734,40a2.741,2.741,0,0,0,.625.391L20,48.515h5A2.109,2.109,0,1,0,25,44.3H21.015L10.39,39.062V29.687A4.168,4.168,0,0,0,6.25,25.546H4.141A20.5,20.5,0,0,1,24.531,6.8a20.546,20.546,0,0,1,15.234,6.015A19.233,19.233,0,0,1,45.624,25.7H43.515a4.168,4.168,0,0,0-4.141,4.141v6.25a4.168,4.168,0,0,0,4.141,4.141h2.109a4.168,4.168,0,0,0,4.141-4.141V27.109L50,25.625ZM6.25,36.093H4.141v-6.25H6.25Zm39.609,0H43.749v-6.25h2.109v2.109h0Z" transform="translate(0 -2.5)"/></svg>