<svg xmlns="http://www.w3.org/2000/svg" width="50" height="45.859" viewBox="0 0 50 45.859"><defs><style>.a{fill:#fff;}</style></defs><path class="a" d="M47.89,44.318H43.75V27.053a3.6,3.6,0,0,0-3.516-3.516h-7.5a3.6,3.6,0,0,0-3.516,3.516V44.318H25V18.459A3.47,3.47,0,0,0,21.484,15.1h-7.5a3.47,3.47,0,0,0-3.516,3.359V44.318H4.219V4.709A2.009,2.009,0,0,0,2.109,2.6,2.009,2.009,0,0,0,0,4.709v41.25a2.688,2.688,0,0,0,2.5,2.5H47.89a2.071,2.071,0,1,0,0-4.141Zm-33.281,0v-25h6.25v25Zm18.75,0V27.678h6.25v16.64Z" transform="translate(0 -2.6)"/></svg>