<svg xmlns="http://www.w3.org/2000/svg" width="50.004" height="45.583" viewBox="0 0 50.004 45.583"><defs><style>.a{fill:#fff;}</style></defs><g transform="translate(0 -2.859)"><path class="a" d="M47.894,21.564,46.019,20.08c-.391-.391-.625-.859-.391-1.25l.625-2.266a5.288,5.288,0,0,0-.859-4.61,5.139,5.139,0,0,0-4.375-2.266l-2.5-.234a1.376,1.376,0,0,1-1.25-.859l-.859-2.266A5.222,5.222,0,0,0,32.893,3.2a4.984,4.984,0,0,0-4.766.625l-2.11,1.25a2,2,0,0,1-1.641,0l-2.11-1.25A6.35,6.35,0,0,0,17.5,3.2a5.222,5.222,0,0,0-3.516,3.125l-.859,2.266a1.511,1.511,0,0,1-1.25.859H8.985A6.053,6.053,0,0,0,4.61,11.72a5.311,5.311,0,0,0-.859,4.61L4.375,18.6a1.009,1.009,0,0,1-.391,1.25L2.11,21.486A5.7,5.7,0,0,0,0,25.705a5.413,5.413,0,0,0,2.11,4.141l1.875,1.484c.391.391.625.859.391,1.25L3.75,34.847a5.288,5.288,0,0,0,.859,4.61,5.139,5.139,0,0,0,4.375,2.266l2.5.234a1.376,1.376,0,0,1,1.25.859l.859,2.266a5.222,5.222,0,0,0,3.516,3.125,5.161,5.161,0,0,0,1.875.234,4.677,4.677,0,0,0,2.891-.859l2.11-1.25a2,2,0,0,1,1.641,0l2.11,1.25a6.35,6.35,0,0,0,4.766.625,5.222,5.222,0,0,0,3.516-3.125l.859-2.266a1.511,1.511,0,0,1,1.25-.859l2.5-.234A6.053,6.053,0,0,0,45,39.456a5.262,5.262,0,0,0,.859-4.61l-.625-2.266a1.009,1.009,0,0,1,.391-1.25l2.266-1.484h0A5.413,5.413,0,0,0,50,25.705,4.781,4.781,0,0,0,47.894,21.564Zm-2.5,5.157-1.875,1.484a5.294,5.294,0,0,0-1.875,5.625l.625,2.266a.8.8,0,0,1-.234,1.016,1.331,1.331,0,0,1-1.25.625l-2.5.234a6.26,6.26,0,0,0-5,3.36L32.5,43.6a4.457,4.457,0,0,1-.859.859c-.391.234-1.016,0-1.484-.234l-2.031-1.25a6.32,6.32,0,0,0-6.016,0L20,44.222a2.833,2.833,0,0,1-1.484.234c-.234,0-.625-.234-.859-.859l-1.016-2.266a5.606,5.606,0,0,0-5-3.36l-2.5-.234a1.914,1.914,0,0,1-1.25-.625A1.417,1.417,0,0,1,7.657,36.1l.625-2.266a5.294,5.294,0,0,0-1.875-5.625L4.532,26.721a1.38,1.38,0,0,1-.391-1.016,1.292,1.292,0,0,1,.391-1.016l1.875-1.484A5.294,5.294,0,0,0,8.282,17.58l-.391-2.266A.8.8,0,0,1,8.126,14.3a1.331,1.331,0,0,1,1.25-.625l2.5-.234a6.26,6.26,0,0,0,5-3.36l.859-2.266a.907.907,0,0,1,.859-.859h.391a1.209,1.209,0,0,1,.859.234l2.031,1.25a6.32,6.32,0,0,0,6.016,0L30,7.188a2.128,2.128,0,0,1,1.484-.234c.234,0,.625.234.859.859l1.016,2.266a5.606,5.606,0,0,0,5,3.36l2.5.234a1.914,1.914,0,0,1,1.25.625,1.417,1.417,0,0,1,.234,1.016l-.625,2.266A5.294,5.294,0,0,0,43.6,23.205l1.875,1.484a1.38,1.38,0,0,1,.391,1.016A1.173,1.173,0,0,1,45.394,26.721Z"/><path class="a" d="M34.421,22.036l-12.5,12.5a1.942,1.942,0,0,0,0,2.891,2.286,2.286,0,0,0,1.484.625,2.458,2.458,0,0,0,1.484-.625l12.5-12.5a1.942,1.942,0,0,0,0-2.891A2.173,2.173,0,0,0,34.421,22.036Z" transform="translate(-4.653 -4.066)"/><circle class="a" cx="3.125" cy="3.125" r="3.125" transform="translate(16.642 17.345)"/><circle class="a" cx="3.125" cy="3.125" r="3.125" transform="translate(27.111 27.815)"/></g></svg>