<svg width="326" height="194" viewBox="0 0 326 194" fill="none" xmlns="http://www.w3.org/2000/svg">
<path d="M2.00003 70.93L14.36 60.45L26.72 70.95L39.07 60.51L51.43 71L63.79 60.51L76.15 71.01L88.52 60.51" stroke="#FFFFFF" stroke-width="4" stroke-miterlimit="10" stroke-linecap="round"/>
<path d="M197.32 10.02C203.54 15.54 213.01 16.15 218.85 8.72999C222.85 3.37999 231.12 3.66999 235.85 10.07" stroke="#CCCCCC" stroke-width="4" stroke-miterlimit="10" stroke-linecap="round"/>
<path d="M273.38 74.45L323.44 74.48" stroke="#52DE97" stroke-width="4" stroke-miterlimit="10" stroke-linecap="round"/>
<path d="M21.13 191L52.33 191.01" stroke="#52DE97" stroke-width="4" stroke-miterlimit="10" stroke-linecap="round"/>
<path d="M106.9 4.00999C106.124 3.97764 105.35 4.10255 104.623 4.37718C103.897 4.65181 103.233 5.07049 102.673 5.60808C102.112 6.14567 101.666 6.79105 101.362 7.50542C101.057 8.21978 100.9 8.98838 100.9 9.765C100.9 10.5416 101.057 11.3102 101.362 12.0246C101.666 12.7389 102.112 13.3843 102.673 13.9219C103.233 14.4595 103.897 14.8782 104.623 15.1528C105.35 15.4274 106.124 15.5524 106.9 15.52H112.26C113.788 15.52 115.253 14.9131 116.333 13.8329C117.413 12.7527 118.02 11.2876 118.02 9.75999C118.02 8.23235 117.413 6.76727 116.333 5.68706C115.253 4.60685 113.788 3.99998 112.26 3.99998H106.92L106.9 4.00999ZM106.92 0H112.26C114.849 0 117.331 1.02827 119.161 2.85863C120.992 4.68898 122.02 7.17148 122.02 9.75999C122.02 12.3485 120.992 14.831 119.161 16.6614C117.331 18.4917 114.849 19.52 112.26 19.52H106.9C104.367 19.4389 101.965 18.3756 100.201 16.555C98.4383 14.7344 97.4524 12.2994 97.4524 9.765C97.4524 7.23057 98.4383 4.79554 100.201 2.97498C101.965 1.15441 104.367 0.0911091 106.9 0.00999451L106.92 0Z" fill="#52DE97"/>
</svg>
