<svg width="326" height="194" viewBox="0 0 326 194" fill="none" xmlns="http://www.w3.org/2000/svg">
<path d="M323.44 70.93L311.08 60.45L298.72 70.95L286.37 60.51L274.01 71L261.65 60.51L249.29 71.01L236.92 60.51" stroke="#2E293C" stroke-width="4" stroke-miterlimit="10" stroke-linecap="round"/>
<path d="M128.12 10.02C121.9 15.54 112.43 16.15 106.59 8.72999C102.59 3.37999 94.32 3.66999 89.59 10.07" stroke="#CCCCCC" stroke-width="4" stroke-miterlimit="10" stroke-linecap="round"/>
<path d="M52.06 74.45L2 74.48" stroke="#52DE97" stroke-width="4" stroke-miterlimit="10" stroke-linecap="round"/>
<path d="M304.31 191L273.11 191.01" stroke="#52DE97" stroke-width="4" stroke-miterlimit="10" stroke-linecap="round"/>
<path d="M218.54 4.00999C219.316 3.97764 220.09 4.10255 220.817 4.37718C221.543 4.65181 222.207 5.07049 222.767 5.60808C223.328 6.14567 223.774 6.79105 224.078 7.50542C224.383 8.21978 224.54 8.98838 224.54 9.765C224.54 10.5416 224.383 11.3102 224.078 12.0246C223.774 12.7389 223.328 13.3843 222.767 13.9219C222.207 14.4595 221.543 14.8782 220.817 15.1528C220.09 15.4274 219.316 15.5524 218.54 15.52H213.18C211.652 15.52 210.187 14.9131 209.107 13.8329C208.027 12.7527 207.42 11.2876 207.42 9.75999C207.42 8.23235 208.027 6.76727 209.107 5.68706C210.187 4.60685 211.652 3.99998 213.18 3.99998H218.52L218.54 4.00999ZM218.52 0H213.18C210.591 0 208.109 1.02827 206.279 2.85863C204.448 4.68898 203.42 7.17148 203.42 9.75999C203.42 12.3485 204.448 14.831 206.279 16.6614C208.109 18.4917 210.591 19.52 213.18 19.52H218.54C221.073 19.4389 223.475 18.3756 225.239 16.555C227.002 14.7344 227.988 12.2994 227.988 9.765C227.988 7.23057 227.002 4.79554 225.239 2.97498C223.475 1.15441 221.073 0.0911091 218.54 0.00999451L218.52 0Z" fill="#52DE97"/>
</svg>
