<svg xmlns="http://www.w3.org/2000/svg" width="30.004" height="30.049" viewBox="0 0 30.004 30.049"><defs><style>.a{fill:#0079bb;}</style></defs><path class="a" d="M27.842,0H2.207A2.195,2.195,0,0,0,0,2.16V27.889a2.195,2.195,0,0,0,2.207,2.16H27.8A2.195,2.195,0,0,0,30,27.889V2.16A2.125,2.125,0,0,0,27.842,0ZM8.921,25.588H4.46V11.268h4.46ZM6.667,9.3A2.582,2.582,0,1,1,9.249,6.714,2.546,2.546,0,0,1,6.667,9.3ZM25.588,25.588h-4.46V18.64c0-1.643-.047-3.8-2.3-3.8-2.3,0-2.676,1.831-2.676,3.662v7.09h-4.46V11.268h4.273V13.24h.047a4.72,4.72,0,0,1,4.226-2.3c4.507,0,5.352,2.958,5.352,6.855v7.794Z"/></svg>