<svg id="Layer_1" data-name="Layer 1" xmlns="http://www.w3.org/2000/svg" viewBox="0 0 568 192"><defs><style>.cls-1{fill:#2e293c;}.cls-2{fill:#52de97;opacity:0.8;}</style></defs><path class="cls-1" d="M149.88,122.3A5.11,5.11,0,0,1,149,119a4.51,4.51,0,0,1,2.42-3.55,5.07,5.07,0,0,1,3.17-.79,5.32,5.32,0,0,1,3.27,1.72,21.7,21.7,0,0,0,5.69,4.2,16.52,16.52,0,0,0,7.46,1.49,26,26,0,0,0,3.08-.41,5.92,5.92,0,0,0,2.94-1.5,4.68,4.68,0,0,0,1.25-3.59,4.08,4.08,0,0,0-1.39-3.26,11.92,11.92,0,0,0-3.69-2.06c-1.52-.56-3.22-1.08-5.08-1.58s-3.91-1.18-5.93-1.87a24.53,24.53,0,0,1-5.55-2.66,12.81,12.81,0,0,1-4.1-4.33A13.3,13.3,0,0,1,151,94,12.26,12.26,0,0,1,153.61,86a17,17,0,0,1,6.76-5,22,22,0,0,1,8.72-1.77,27.86,27.86,0,0,1,6.06.7,23.72,23.72,0,0,1,6.07,2.24,15,15,0,0,1,4.85,4.06,6.69,6.69,0,0,1,1.21,3.35,4,4,0,0,1-1.77,3.55,4.56,4.56,0,0,1-3.27,1,5,5,0,0,1-3.08-1.26,11,11,0,0,0-4.24-3.27,14.71,14.71,0,0,0-6.11-1.21,15.38,15.38,0,0,0-3,.33,6,6,0,0,0-2.85,1.4,5.1,5.1,0,0,0,.19,6.81,10.55,10.55,0,0,0,3.78,2c1.58.53,3.28,1,5.08,1.54s3.76,1.09,5.69,1.77A22.4,22.4,0,0,1,183,105a12.77,12.77,0,0,1,3.92,4.33,13.75,13.75,0,0,1,1.49,6.76,12.24,12.24,0,0,1-2.8,8.12,17.72,17.72,0,0,1-7,5.08A22.33,22.33,0,0,1,170,131a33.43,33.43,0,0,1-11-1.91A19,19,0,0,1,149.88,122.3Z"/><path class="cls-1" d="M220.77,131A27.35,27.35,0,0,1,207,127.67a22.94,22.94,0,0,1-9-9,26.37,26.37,0,0,1-3.12-12.88,28.27,28.27,0,0,1,3.4-14.31,24.13,24.13,0,0,1,8.91-9.1,23,23,0,0,1,11.66-3.17,21.17,21.17,0,0,1,9,2,24.53,24.53,0,0,1,7.51,5.36,26.17,26.17,0,0,1,5.18,7.88,24.09,24.09,0,0,1,1.91,9.52,4.8,4.8,0,0,1-1.77,3.64,6,6,0,0,1-3.92,1.4H201.18l-2.8-9.33h34.23l-2.05,1.86V99a8.58,8.58,0,0,0-1.91-4.85,12.48,12.48,0,0,0-4.29-3.4,12.22,12.22,0,0,0-5.46-1.26,17.52,17.52,0,0,0-5.22.75,9.93,9.93,0,0,0-4.2,2.52,12.15,12.15,0,0,0-2.8,4.75,23.7,23.7,0,0,0-1,7.56,16.27,16.27,0,0,0,2.1,8.53,14.34,14.34,0,0,0,12.46,7.14,21.81,21.81,0,0,0,5.5-.56,12.2,12.2,0,0,0,3.31-1.35c.84-.53,1.6-1,2.29-1.36a7.09,7.09,0,0,1,3.17-.84,4.69,4.69,0,0,1,4.75,4.67,5.82,5.82,0,0,1-2.61,4.57,21.64,21.64,0,0,1-6.81,3.59A27,27,0,0,1,220.77,131Z"/><path class="cls-1" d="M292.59,79.21a5.44,5.44,0,0,1,4,1.59,5.52,5.52,0,0,1,1.58,4.1v39.46a5.56,5.56,0,0,1-1.58,4,5.72,5.72,0,0,1-8,0,5.57,5.57,0,0,1-1.59-4v-4.57l2.05.84a5.24,5.24,0,0,1-1.3,2.93,17.64,17.64,0,0,1-3.55,3.41,21.42,21.42,0,0,1-5.27,2.84,18.08,18.08,0,0,1-6.57,1.17,21.3,21.3,0,0,1-11.66-3.31,23.3,23.3,0,0,1-8.26-9.14,28.63,28.63,0,0,1-3-13.39,28.83,28.83,0,0,1,3-13.48,23.6,23.6,0,0,1,8.16-9.14A20.54,20.54,0,0,1,272,79.21a21.5,21.5,0,0,1,7.37,1.21,22.19,22.19,0,0,1,5.83,3.08A18.08,18.08,0,0,1,289,87.28a6,6,0,0,1,1.35,3.22L287,91.71V84.9a5.59,5.59,0,0,1,1.59-4.06A5.37,5.37,0,0,1,292.59,79.21Zm-18.84,41.51a12.63,12.63,0,0,0,7.18-2,13.9,13.9,0,0,0,4.8-5.6,17.86,17.86,0,0,0,1.73-7.93,18.1,18.1,0,0,0-1.73-8,13.9,13.9,0,0,0-4.8-5.6,12.71,12.71,0,0,0-7.18-2,12.53,12.53,0,0,0-7.09,2,13.85,13.85,0,0,0-4.81,5.6,18.09,18.09,0,0,0-1.72,8,17.85,17.85,0,0,0,1.72,7.93,13.85,13.85,0,0,0,4.81,5.6A12.45,12.45,0,0,0,273.75,120.72Z"/><path class="cls-1" d="M310.87,81.08H333a5.09,5.09,0,0,1,5.22,5.22,4.81,4.81,0,0,1-1.49,3.59A5.18,5.18,0,0,1,333,91.34H310.87a5.11,5.11,0,0,1-5.22-5.23,4.78,4.78,0,0,1,1.49-3.59A5.15,5.15,0,0,1,310.87,81.08Zm10-11.66a5.17,5.17,0,0,1,4,1.63,5.67,5.67,0,0,1,1.54,4.06v41.5a4,4,0,0,0,.52,2.15,2.9,2.9,0,0,0,1.4,1.21,4.82,4.82,0,0,0,1.91.38,5,5,0,0,0,2.05-.42,5.17,5.17,0,0,1,2.14-.42,3.13,3.13,0,0,1,2.38,1.21,4.88,4.88,0,0,1,1.08,3.36q0,2.61-2.85,4.29a11.81,11.81,0,0,1-6.11,1.68,31.94,31.94,0,0,1-4.34-.33,11.76,11.76,0,0,1-4.47-1.59,9.69,9.69,0,0,1-3.5-3.87,15.36,15.36,0,0,1-1.4-7.18v-42a5.57,5.57,0,0,1,5.69-5.69Z"/><path class="cls-1" d="M374.3,79.21A21.22,21.22,0,0,1,386,82.52a23.51,23.51,0,0,1,8.21,9.1,28.51,28.51,0,0,1,3,13.43,28.83,28.83,0,0,1-3,13.48,23.72,23.72,0,0,1-8.11,9.14A20.47,20.47,0,0,1,374.67,131a20.15,20.15,0,0,1-7-1.21,22.5,22.5,0,0,1-5.73-3.08,17.4,17.4,0,0,1-3.83-3.78,6,6,0,0,1-1.35-3.22l2.89-1.21v6.81a5.62,5.62,0,0,1-1.58,4.06,5.81,5.81,0,0,1-8,0,5.55,5.55,0,0,1-1.58-4.1V66.71A5.62,5.62,0,0,1,350,62.65a5.76,5.76,0,0,1,8,0,5.62,5.62,0,0,1,1.58,4.06V90.4l-1.58-.84a5.24,5.24,0,0,1,1.3-2.93,19.24,19.24,0,0,1,3.55-3.46,20.37,20.37,0,0,1,5.17-2.84A17.22,17.22,0,0,1,374.3,79.21Zm-1.4,10.26a12.68,12.68,0,0,0-7.18,2,13.9,13.9,0,0,0-4.81,5.55,17.8,17.8,0,0,0-1.72,8,18.15,18.15,0,0,0,1.72,8,13.74,13.74,0,0,0,4.81,5.65,12.61,12.61,0,0,0,7.18,2,12.4,12.4,0,0,0,7.13-2,13.93,13.93,0,0,0,4.76-5.65,18.15,18.15,0,0,0,1.73-8,17.8,17.8,0,0,0-1.73-8A14.1,14.1,0,0,0,380,91.52,12.48,12.48,0,0,0,372.9,89.47Z"/><path class="cls-1" d="M447,79.21a5.43,5.43,0,0,1,4,1.59,5.52,5.52,0,0,1,1.59,4.1v39.46a5.57,5.57,0,0,1-1.59,4,5.72,5.72,0,0,1-8,0,5.57,5.57,0,0,1-1.59-4v-4.57l2.05.84a5.24,5.24,0,0,1-1.3,2.93,17.37,17.37,0,0,1-3.55,3.41,21.42,21.42,0,0,1-5.27,2.84,18.08,18.08,0,0,1-6.57,1.17,21.3,21.3,0,0,1-11.66-3.31,23.3,23.3,0,0,1-8.26-9.14,28.63,28.63,0,0,1-3-13.39,28.83,28.83,0,0,1,3-13.48A23.6,23.6,0,0,1,415,82.52a20.55,20.55,0,0,1,11.39-3.31,21.44,21.44,0,0,1,7.36,1.21,22,22,0,0,1,5.83,3.08,17.85,17.85,0,0,1,3.83,3.78,6,6,0,0,1,1.35,3.22l-3.36,1.21V84.9A5.59,5.59,0,0,1,443,80.84,5.37,5.37,0,0,1,447,79.21Zm-18.84,41.51a12.63,12.63,0,0,0,7.18-2,13.9,13.9,0,0,0,4.8-5.6,17.86,17.86,0,0,0,1.73-7.93,18.1,18.1,0,0,0-1.73-8,13.9,13.9,0,0,0-4.8-5.6,12.71,12.71,0,0,0-7.18-2,12.53,12.53,0,0,0-7.09,2,13.93,13.93,0,0,0-4.81,5.6,18.09,18.09,0,0,0-1.72,8,17.85,17.85,0,0,0,1.72,7.93,13.93,13.93,0,0,0,4.81,5.6A12.45,12.45,0,0,0,428.12,120.72Z"/><path class="cls-1" d="M486.41,79.21a34.26,34.26,0,0,1,9.29,1.12,15.17,15.17,0,0,1,6.15,3.12A6.3,6.3,0,0,1,504,88.26a6.06,6.06,0,0,1-1.12,3.5,3.71,3.71,0,0,1-3.26,1.63,6.27,6.27,0,0,1-2.47-.42,6.72,6.72,0,0,1-1.73-1.07,10.18,10.18,0,0,0-1.77-1.22,8.66,8.66,0,0,0-2.84-.88,18.66,18.66,0,0,0-2.85-.33,15.12,15.12,0,0,0-8.07,2,13.67,13.67,0,0,0-5.08,5.55,17.63,17.63,0,0,0-1.77,8.07,17,17,0,0,0,1.82,8,14.27,14.27,0,0,0,5,5.55,13.5,13.5,0,0,0,7.42,2,24.43,24.43,0,0,0,4-.28,10.21,10.21,0,0,0,2.8-.84,17.57,17.57,0,0,0,2.33-1.59,4.78,4.78,0,0,1,3.08-.84,4.65,4.65,0,0,1,3.73,1.54,5.66,5.66,0,0,1,1.3,3.78q0,2.34-2.61,4.24a20.76,20.76,0,0,1-6.85,3.08A34.52,34.52,0,0,1,486,131a23.48,23.48,0,0,1-12.78-3.41,22.73,22.73,0,0,1-8.35-9.28,29,29,0,0,1-2.94-13.15A28,28,0,0,1,465,91.66a23.19,23.19,0,0,1,8.67-9.14A24.36,24.36,0,0,1,486.41,79.21Z"/><path class="cls-1" d="M519.25,130.05a5.34,5.34,0,0,1-4-1.64,5.57,5.57,0,0,1-1.59-4V66.71a5.59,5.59,0,0,1,1.59-4.06,5.75,5.75,0,0,1,8,0,5.59,5.59,0,0,1,1.59,4.06v57.65a5.57,5.57,0,0,1-1.59,4A5.37,5.37,0,0,1,519.25,130.05Zm29.66-49.91a4.84,4.84,0,0,1,3.73,1.78,5.26,5.26,0,0,1,1.59,3.45A5.59,5.59,0,0,1,552,89.56L523.91,115.4l-.46-12.87,21.36-20.61A5.61,5.61,0,0,1,548.91,80.14Zm1.4,49.81a5.31,5.31,0,0,1-4.1-1.86L529,109.8l8.49-7.83,16.79,18.28a6,6,0,0,1,1.77,4.2,4.85,4.85,0,0,1-1.91,4A6.06,6.06,0,0,1,550.31,130Z"/><rect class="cls-2" x="5.09" y="95.89" width="65.59" height="18.41" rx="9.21" transform="translate(-63.22 57.57) rotate(-45)"/><rect class="cls-2" x="71.81" y="95.89" width="65.59" height="18.41" rx="9.21" transform="translate(-43.68 104.75) rotate(-45)"/><rect class="cls-2" x="38.45" y="95.89" width="65.59" height="18.41" rx="9.21" transform="translate(47.31 229.78) rotate(-135)"/><circle class="cls-2" cx="87.92" cy="79.21" r="11.37"/><circle class="cls-2" cx="87.92" cy="79.21" r="11.37"/></svg>