<svg xmlns="http://www.w3.org/2000/svg" width="29.996" height="24.457" viewBox="0 0 29.996 24.457"><defs><style>.a{fill:#19a8e5;}</style></defs><path class="a" d="M9.435,30.457c11.36,0,17.556-9.388,17.556-17.556a4.827,4.827,0,0,0-.047-.8A12.306,12.306,0,0,0,30,8.91a11.505,11.505,0,0,1-3.568.986,6.206,6.206,0,0,0,2.723-3.427,12.5,12.5,0,0,1-3.943,1.5A6.1,6.1,0,0,0,20.7,6a6.19,6.19,0,0,0-6.2,6.2,7.165,7.165,0,0,0,.141,1.408A17.558,17.558,0,0,1,2.065,7.127a6.38,6.38,0,0,0-.845,3.1,6.015,6.015,0,0,0,2.77,5.117,6.548,6.548,0,0,1-2.77-.751v.047a6.191,6.191,0,0,0,4.929,6.055,6.252,6.252,0,0,1-1.6.235,4.729,4.729,0,0,1-1.174-.141,6.177,6.177,0,0,0,5.774,4.272A12.47,12.47,0,0,1,1.5,27.687,7.782,7.782,0,0,1,0,27.64a17.038,17.038,0,0,0,9.435,2.816" transform="translate(0 -6)"/></svg>